<?xml version="1.0" encoding="UTF-8"?>
<!DOCTYPE svg PUBLIC "-//W3C//DTD SVG 1.1//EN" "http://www.w3.org/Graphics/SVG/1.1/DTD/svg11.dtd">
<!-- Creator: CorelDRAW 2020 (64-Bit) -->
<svg xmlns="http://www.w3.org/2000/svg" xml:space="preserve" width="3.09563cm" height="3.09565cm" version="1.1" style="shape-rendering:geometricPrecision; text-rendering:geometricPrecision; image-rendering:optimizeQuality; fill-rule:evenodd; clip-rule:evenodd"
viewBox="0 0 10139.59 10139.65"
 xmlns:xlink="http://www.w3.org/1999/xlink"
 xmlns:xodm="http://www.corel.com/coreldraw/odm/2003">
 <defs>
  <style type="text/css">
   <![CDATA[
    .fil0 {fill:white}
    .fil1 {fill:#00BB2D;fill-rule:nonzero}
   ]]>
  </style>
 </defs>
 <g id="Capa_x0020_1">
  <metadata id="CorelCorpID_0Corel-Layer"/>
  <circle class="fil0" cx="5069.83" cy="5069.83" r="4788.15"/>
  <path class="fil1" d="M5082.88 2607.55c-1343.92,0 -2436.45,1092.53 -2436.87,2436.05 -0.46,548.41 160.56,959.02 430.49,1388.69l-245.92 899.05 921.88 -242.06c413.17,245 807.33,392.04 1328.72,392.46 1342.64,0 2436.41,-1092.95 2436.87,-2436.05 0.46,-1346.47 -1087.91,-2437.69 -2435.17,-2438.15zm1433.08 3482.98c-60.86,171.11 -353.59,327.02 -494.3,348.08 -126.33,19.03 -286.01,26.63 -461.31,-29.12 -106.48,-33.8 -242.91,-79 -417.42,-154.18 -734.72,-317.33 -1214.18,-1057.09 -1250.99,-1105.63 -36.72,-49 -299.08,-397.15 -299.08,-757.51 0,-360.37 189.22,-537.8 256.44,-610.94 67.18,-73.08 146.18,-91.65 195.18,-91.65l140.25 2.55c44.78,2.1 105.21,-16.93 164.79,125.88 60.89,146.61 207.47,507.01 225.61,543.76 18.15,36.72 30.4,79.46 5.93,128.43 -24.53,49 -36.72,79.46 -73.08,122.14l-109.86 128.43c-36.72,36.36 -74.78,76.06 -32.13,149.59 42.68,73.5 189.71,313.03 407.27,507.4 279.69,249.65 515.82,327.02 588.96,363.35 73.11,36.36 115.72,30.43 158.83,-18.11 42.68,-49 182.93,-213.79 231.93,-287.32 48.97,-73.04 97.58,-61.25 164.79,-36.72 67.18,24.53 427.09,201.51 500.23,238.32 73.14,36.78 122.14,54.93 140.25,85.33 19.03,30.4 19.03,177.04 -42.22,348.08l-0.07 -0.16zm-1446.18 -6090.54c-2799.79,0 -5069.78,2269.99 -5069.78,5069.78 0,2799.82 2269.99,5069.81 5069.78,5069.81 2799.82,0 5069.81,-2269.99 5069.81,-5069.81 0,-2799.79 -2269.99,-5069.78 -5069.81,-5069.78zm12.28 7976.45c-490.53,0 -973.86,-123.32 -1401.8,-356.6l-1553.48 407.27 415.75 -1518.83c-256.44,-444.48 -391.68,-948.87 -391.22,-1465.14 0.46,-1616.01 1315.19,-2930.74 2930.74,-2930.74 784.14,0.46 1520.07,305.44 2073.13,859.35 553.45,553.88 858.04,1290.27 857.68,2073.53 -0.46,1616.01 -1315.19,2931.17 -2930.74,2931.17l-0.07 0z"/>
 </g>
</svg>
